<svg width="397" height="445" viewBox="0 0 397 445" fill="none" xmlns="http://www.w3.org/2000/svg">
<path fill-rule="evenodd" clip-rule="evenodd" d="M121.685 1H256.112V35.567H121.685V1Z" fill="#DCDCDC" stroke="black"/>
<path d="M163.744 21.2314L163.822 22.2425H163.931L164.148 21.1381L165.3 16.8916H166.326L167.399 21.107L167.679 22.2581H167.757L167.851 21.2003L169.002 13.4695H170.153L168.473 24.358H167.182L165.922 19.9404L165.766 18.8826H165.719L165.548 19.9559L164.288 24.358H162.982L161.286 13.4695H162.515L163.744 21.2314ZM172.013 24.358V23.3158H174.72V17.6227H172.013V16.5805H175.964V23.3158H178.609V24.358H172.013ZM174.3 14.3717C174.3 14.0917 174.393 13.8532 174.58 13.6562C174.766 13.4488 175.005 13.3451 175.295 13.3451C175.596 13.3451 175.845 13.4488 176.042 13.6562C176.249 13.8532 176.353 14.0917 176.353 14.3717C176.353 14.6413 176.249 14.8695 176.042 15.0561C175.845 15.2428 175.596 15.3361 175.295 15.3361C175.005 15.3361 174.766 15.2428 174.58 15.0561C174.393 14.8695 174.3 14.6413 174.3 14.3717ZM181.153 19.3026C181.153 19.2093 181.148 19.09 181.138 18.9449C181.138 18.7893 181.133 18.6338 181.122 18.4782C181.112 18.3123 181.096 18.1516 181.076 17.996C181.065 17.8405 181.05 17.7056 181.029 17.5916H179.987V16.5805H182.071L182.211 17.8405H182.289C182.393 17.6642 182.527 17.4931 182.693 17.3271C182.87 17.1509 183.072 16.9953 183.3 16.8605C183.528 16.7153 183.782 16.6012 184.062 16.5183C184.342 16.4353 184.638 16.3938 184.949 16.3938C185.426 16.3938 185.846 16.4457 186.209 16.5494C186.582 16.6531 186.888 16.8398 187.127 17.1094C187.375 17.3686 187.562 17.7264 187.687 18.1827C187.811 18.6286 187.873 19.1989 187.873 19.8937V24.358H186.66V20.127C186.66 19.2663 186.52 18.6182 186.24 18.1827C185.96 17.7471 185.452 17.5294 184.716 17.5294C184.446 17.5294 184.181 17.5864 183.922 17.7005C183.673 17.8042 183.445 17.9442 183.238 18.1204C183.03 18.2967 182.849 18.5041 182.693 18.7426C182.538 18.9708 182.424 19.2145 182.351 19.4737V24.358H181.153V19.3026ZM194.462 13.4695H196.982V21.6981C196.982 21.7914 196.988 21.9107 196.998 22.0559C197.008 22.1907 197.019 22.3359 197.029 22.4914C197.05 22.647 197.071 22.8025 197.091 22.9581C197.112 23.1032 197.133 23.2329 197.153 23.3469H198.196V24.358H196.127L195.971 23.1603H195.909C195.681 23.5543 195.339 23.8862 194.882 24.1558C194.437 24.415 193.918 24.5447 193.327 24.5447C192.155 24.5447 191.289 24.218 190.729 23.5647C190.18 22.901 189.905 21.8744 189.905 20.4848C189.905 19.8315 189.998 19.256 190.185 18.7582C190.371 18.2501 190.636 17.8301 190.978 17.4982C191.331 17.156 191.751 16.8968 192.238 16.7205C192.725 16.5442 193.27 16.4561 193.871 16.4561C194.089 16.4561 194.281 16.4612 194.447 16.4716C194.623 16.482 194.784 16.4975 194.929 16.5183C195.074 16.539 195.209 16.5701 195.334 16.6116C195.468 16.6427 195.614 16.679 195.769 16.7205V14.5117H194.462V13.4695ZM193.529 23.5025C194.162 23.5025 194.659 23.3417 195.022 23.0203C195.385 22.6884 195.634 22.1959 195.769 21.5425V17.9338C195.541 17.7782 195.282 17.6642 194.991 17.5916C194.711 17.519 194.338 17.4827 193.871 17.4827C193.042 17.4827 192.388 17.7264 191.911 18.2138C191.434 18.6908 191.196 19.4478 191.196 20.4848C191.196 20.91 191.232 21.3092 191.305 21.6825C191.388 22.0455 191.517 22.3618 191.694 22.6314C191.88 22.901 192.124 23.1136 192.425 23.2692C192.725 23.4247 193.094 23.5025 193.529 23.5025ZM199.247 20.4693C199.247 19.2145 199.574 18.2241 200.227 17.4982C200.881 16.762 201.814 16.3938 203.027 16.3938C203.681 16.3938 204.24 16.5027 204.707 16.7205C205.184 16.9279 205.578 17.2131 205.889 17.576C206.2 17.939 206.429 18.3693 206.574 18.8671C206.729 19.3648 206.807 19.8989 206.807 20.4693C206.807 21.0915 206.724 21.6566 206.558 22.1647C206.392 22.6625 206.149 23.0877 205.827 23.4403C205.506 23.7928 205.106 24.0676 204.629 24.2647C204.163 24.4513 203.629 24.5447 203.027 24.5447C202.384 24.5447 201.824 24.441 201.347 24.2336C200.87 24.0158 200.476 23.7254 200.165 23.3625C199.854 22.9995 199.621 22.5692 199.465 22.0714C199.32 21.5737 199.247 21.0396 199.247 20.4693ZM200.538 20.4693C200.538 20.8322 200.58 21.1952 200.663 21.5581C200.756 21.9211 200.901 22.2477 201.098 22.5381C201.295 22.8284 201.549 23.0618 201.861 23.238C202.182 23.4143 202.571 23.5025 203.027 23.5025C203.857 23.5025 204.479 23.2484 204.894 22.7403C205.319 22.2218 205.532 21.4648 205.532 20.4693C205.532 20.0959 205.485 19.733 205.392 19.3804C205.309 19.0175 205.163 18.6908 204.956 18.4004C204.759 18.1101 204.5 17.8768 204.178 17.7005C203.867 17.5242 203.483 17.436 203.027 17.436C202.198 17.436 201.575 17.6901 201.161 18.1982C200.746 18.7064 200.538 19.4634 200.538 20.4693ZM212.961 18.2916L214.516 22.6158H214.625L215.73 16.5805H216.865L215.341 24.358H213.956L212.463 20.0648H212.416L210.861 24.358H209.476L207.843 16.5805H209.041L210.301 22.647H210.394L211.903 18.2916H212.961Z" fill="black"/>
<path fill-rule="evenodd" clip-rule="evenodd" d="M131.287 61.493H246.51V96.06H131.287V61.493Z" fill="#DCDCDC" stroke="black"/>
<path d="M154.615 71.9625C155.009 71.9107 155.419 71.8796 155.844 71.8692C156.28 71.8484 156.648 71.8381 156.949 71.8381C157.892 71.8381 158.68 71.9729 159.313 72.2425C159.956 72.5121 160.469 72.8906 160.853 73.378C161.247 73.855 161.527 74.4306 161.693 75.1046C161.869 75.7787 161.957 76.5201 161.957 77.329C161.957 78.0653 161.88 78.7756 161.724 79.46C161.568 80.1341 161.299 80.7355 160.915 81.2644C160.531 81.7829 160.013 82.2029 159.36 82.5244C158.717 82.8355 157.908 82.991 156.933 82.991C156.798 82.991 156.622 82.9858 156.404 82.9755C156.186 82.9755 155.963 82.9651 155.735 82.9443C155.507 82.934 155.289 82.9236 155.082 82.9132C154.875 82.9029 154.719 82.8873 154.615 82.8666V71.9625ZM157.011 72.9891C156.866 72.9891 156.679 72.9943 156.451 73.0047C156.233 73.0151 156.052 73.0358 155.906 73.0669V81.7777C155.958 81.7881 156.031 81.7985 156.124 81.8088C156.228 81.8088 156.332 81.814 156.435 81.8244C156.539 81.8244 156.638 81.8296 156.731 81.8399C156.835 81.8399 156.918 81.8399 156.98 81.8399C157.737 81.8399 158.349 81.7155 158.815 81.4666C159.292 81.2177 159.66 80.8859 159.92 80.4711C160.179 80.0459 160.355 79.5637 160.449 79.0245C160.542 78.4749 160.589 77.9097 160.589 77.329C160.589 76.8209 160.547 76.3127 160.464 75.8046C160.381 75.2861 160.21 74.8194 159.951 74.4046C159.702 73.9898 159.339 73.6528 158.862 73.3936C158.395 73.124 157.778 72.9891 157.011 72.9891ZM163.585 78.9623C163.585 77.7075 163.911 76.7172 164.565 75.9913C165.218 75.255 166.151 74.8869 167.364 74.8869C168.018 74.8869 168.578 74.9957 169.044 75.2135C169.521 75.4209 169.915 75.7061 170.227 76.069C170.538 76.432 170.766 76.8623 170.911 77.3601C171.067 77.8579 171.144 78.3919 171.144 78.9623C171.144 79.5845 171.061 80.1496 170.895 80.6578C170.729 81.1555 170.486 81.5807 170.164 81.9333C169.843 82.2858 169.444 82.5607 168.967 82.7577C168.5 82.9443 167.966 83.0377 167.364 83.0377C166.721 83.0377 166.161 82.934 165.684 82.7266C165.207 82.5088 164.813 82.2184 164.502 81.8555C164.191 81.4925 163.958 81.0622 163.802 80.5644C163.657 80.0667 163.585 79.5326 163.585 78.9623ZM164.876 78.9623C164.876 79.3252 164.917 79.6882 165 80.0511C165.093 80.4141 165.239 80.7407 165.436 81.0311C165.633 81.3214 165.887 81.5548 166.198 81.7311C166.519 81.9073 166.908 81.9955 167.364 81.9955C168.194 81.9955 168.816 81.7414 169.231 81.2333C169.656 80.7148 169.869 79.9578 169.869 78.9623C169.869 78.5889 169.822 78.226 169.729 77.8734C169.646 77.5105 169.501 77.1838 169.293 76.8934C169.096 76.6031 168.837 76.3698 168.515 76.1935C168.204 76.0172 167.821 75.929 167.364 75.929C166.535 75.929 165.913 76.1831 165.498 76.6912C165.083 77.1994 164.876 77.9564 164.876 78.9623ZM178.853 76.2712C178.615 76.1883 178.356 76.1209 178.076 76.069C177.806 76.0068 177.536 75.9757 177.267 75.9757C176.251 75.9757 175.494 76.2142 174.996 76.6912C174.498 77.1683 174.249 77.9253 174.249 78.9623C174.249 79.4185 174.322 79.8282 174.467 80.1911C174.612 80.5437 174.82 80.8444 175.089 81.0933C175.359 81.3422 175.68 81.534 176.054 81.6688C176.437 81.8036 176.857 81.871 177.314 81.871C177.801 81.871 178.273 81.7881 178.729 81.6222C179.196 81.4562 179.585 81.2385 179.896 80.9689L180.44 81.871C180.295 81.9955 180.113 82.1251 179.896 82.2599C179.678 82.3947 179.424 82.5244 179.133 82.6488C178.853 82.7629 178.537 82.8562 178.185 82.9288C177.842 83.0014 177.469 83.0377 177.065 83.0377C176.391 83.0377 175.794 82.9443 175.276 82.7577C174.768 82.5607 174.343 82.2858 174 81.9333C173.658 81.5703 173.399 81.14 173.223 80.6422C173.046 80.1341 172.958 79.5741 172.958 78.9623C172.958 78.309 173.046 77.7282 173.223 77.2201C173.409 76.712 173.674 76.2868 174.016 75.9446C174.358 75.6024 174.773 75.3431 175.26 75.1668C175.748 74.9802 176.292 74.8869 176.894 74.8869C177.661 74.8869 178.283 74.9543 178.76 75.0891C179.248 75.2239 179.657 75.3742 179.989 75.5402L179.973 75.5868V77.749H178.853V76.2712ZM186.998 75.0735H189.207V80.3778C189.207 80.8859 189.238 81.3733 189.3 81.8399H190.343V82.851H188.274L188.227 81.5288H188.165C187.895 81.9747 187.537 82.3377 187.092 82.6177C186.646 82.8977 186.106 83.0377 185.474 83.0377C184.997 83.0377 184.587 82.9806 184.245 82.8666C183.913 82.7629 183.638 82.5762 183.421 82.3066C183.203 82.037 183.042 81.6792 182.938 81.2333C182.835 80.777 182.783 80.2118 182.783 79.5378V76.1157H181.741V75.0735H183.996V79.2889C183.996 79.7141 184.012 80.0978 184.043 80.44C184.084 80.7718 184.162 81.057 184.276 81.2955C184.39 81.5237 184.556 81.6999 184.774 81.8244C185.002 81.9385 185.303 81.9955 185.676 81.9955C186.215 81.9955 186.682 81.8192 187.076 81.4666C187.48 81.114 187.786 80.6733 187.994 80.1444V76.1157H186.998V75.0735ZM194.754 82.851V77.6712C194.754 77.4534 194.744 77.246 194.723 77.049C194.713 76.8416 194.676 76.6601 194.614 76.5046C194.562 76.3387 194.479 76.209 194.365 76.1157C194.262 76.0224 194.122 75.9757 193.945 75.9757C193.593 75.9757 193.292 76.1209 193.043 76.4112C192.805 76.7016 192.623 77.0646 192.499 77.5001V82.851H191.316V75.0735H192.125L192.359 76.0224H192.421C192.525 75.8668 192.623 75.7216 192.716 75.5868C192.82 75.4416 192.934 75.3172 193.059 75.2135C193.193 75.1098 193.349 75.032 193.525 74.9802C193.702 74.918 193.924 74.8869 194.194 74.8869C194.35 74.8869 194.51 74.9128 194.676 74.9646C194.842 75.0061 194.993 75.0787 195.127 75.1824C195.273 75.2757 195.397 75.4054 195.501 75.5713C195.604 75.7372 195.672 75.9394 195.703 76.1779C195.941 75.7735 196.206 75.4572 196.496 75.2291C196.797 75.0009 197.207 74.8869 197.725 74.8869C198.067 74.8869 198.342 74.9439 198.55 75.058C198.767 75.172 198.933 75.3379 199.047 75.5557C199.172 75.7631 199.255 76.0172 199.296 76.3179C199.348 76.6083 199.374 76.9349 199.374 77.2979V82.851H198.192V77.5623C198.192 77.3445 198.181 77.1423 198.161 76.9557C198.14 76.7586 198.098 76.5875 198.036 76.4424C197.984 76.2972 197.907 76.1831 197.803 76.1001C197.71 76.0172 197.58 75.9757 197.414 75.9757C197.051 75.9757 196.745 76.1209 196.496 76.4112C196.247 76.7016 196.061 77.1164 195.936 77.6556V82.851H194.754ZM208.234 81.871C208.048 82.037 207.825 82.1925 207.565 82.3377C207.316 82.4829 207.042 82.6073 206.741 82.711C206.44 82.8147 206.124 82.8925 205.792 82.9443C205.471 83.0066 205.144 83.0377 204.812 83.0377C204.19 83.0377 203.64 82.9443 203.163 82.7577C202.686 82.5607 202.287 82.2858 201.966 81.9333C201.644 81.5703 201.4 81.14 201.234 80.6422C201.069 80.1444 200.986 79.5845 200.986 78.9623C200.986 78.309 201.074 77.7282 201.25 77.2201C201.437 76.712 201.701 76.2868 202.043 75.9446C202.386 75.6024 202.8 75.3431 203.288 75.1668C203.775 74.9802 204.32 74.8869 204.921 74.8869C205.357 74.8869 205.787 74.9439 206.212 75.058C206.637 75.172 207.011 75.3898 207.332 75.7113C207.664 76.0224 207.918 76.4579 208.094 77.0179C208.27 77.5675 208.333 78.283 208.281 79.1645H202.261C202.261 80.0978 202.51 80.7978 203.008 81.2644C203.516 81.7207 204.19 81.9488 205.03 81.9488C205.31 81.9488 205.585 81.9177 205.854 81.8555C206.134 81.7829 206.399 81.6999 206.648 81.6066C206.896 81.5133 207.114 81.4096 207.301 81.2955C207.498 81.1814 207.648 81.0777 207.752 80.9844L208.234 81.871ZM204.952 75.9135C204.61 75.9135 204.283 75.9498 203.972 76.0224C203.671 76.095 203.402 76.2194 203.163 76.3957C202.935 76.5616 202.743 76.7846 202.588 77.0646C202.443 77.3342 202.349 77.6712 202.308 78.0756H207.145C207.094 77.3912 206.871 76.8623 206.476 76.489C206.093 76.1053 205.585 75.9135 204.952 75.9135ZM210.779 77.7956C210.779 77.7023 210.774 77.5831 210.764 77.4379C210.764 77.2823 210.758 77.1268 210.748 76.9712C210.738 76.8053 210.722 76.6446 210.701 76.489C210.691 76.3335 210.675 76.1987 210.655 76.0846H209.613V75.0735H211.697L211.837 76.3335H211.915C212.018 76.1572 212.153 75.9861 212.319 75.8202C212.495 75.6439 212.698 75.4883 212.926 75.3535C213.154 75.2083 213.408 75.0943 213.688 75.0113C213.968 74.9283 214.263 74.8869 214.575 74.8869C215.052 74.8869 215.472 74.9387 215.835 75.0424C216.208 75.1461 216.514 75.3328 216.752 75.6024C217.001 75.8616 217.188 76.2194 217.312 76.6757C217.437 77.1216 217.499 77.6919 217.499 78.3867V82.851H216.286V78.6201C216.286 77.7593 216.146 77.1112 215.866 76.6757C215.586 76.2401 215.078 76.0224 214.341 76.0224C214.072 76.0224 213.807 76.0794 213.548 76.1935C213.299 76.2972 213.071 76.4372 212.864 76.6135C212.656 76.7897 212.475 76.9971 212.319 77.2357C212.164 77.4638 212.049 77.7075 211.977 77.9667V82.851H210.779V77.7956ZM219.142 75.0735H220.993V73.5336L222.206 73.1914V75.0735H226.359V76.1157H222.206V79.7867C222.206 80.5437 222.387 81.1037 222.75 81.4666C223.124 81.8296 223.653 82.011 224.337 82.011C224.804 82.011 225.208 81.9229 225.55 81.7466C225.903 81.5703 226.219 81.3785 226.499 81.1711L226.904 82.0888C226.541 82.3792 226.105 82.6125 225.597 82.7888C225.099 82.9651 224.586 83.0532 224.057 83.0532C223.642 83.0532 223.248 82.991 222.875 82.8666C222.512 82.7525 222.19 82.571 221.91 82.3221C221.63 82.0733 221.408 81.757 221.242 81.3733C221.076 80.9792 220.993 80.5126 220.993 79.9733V76.1157H219.142V75.0735Z" fill="black"/>
<path d="M231.908 121.985H145.889C143.128 121.985 140.889 124.224 140.889 126.985V151.552C140.889 154.313 143.128 156.552 145.889 156.552H231.908C234.669 156.552 236.908 154.313 236.908 151.552V126.985C236.908 124.224 234.669 121.985 231.908 121.985Z" fill="#87CEFA" stroke="black"/>
<path d="M164.634 137.599V137.148L171.96 132.683L172.552 133.648L166.376 137.303L172.567 140.896L171.976 141.83L164.634 137.599ZM173.323 131.454H175.75V135.53H175.828C176.149 135.167 176.522 134.887 176.947 134.69C177.373 134.483 177.902 134.379 178.534 134.379C179.032 134.379 179.462 134.431 179.825 134.534C180.198 134.638 180.499 134.82 180.727 135.079C180.966 135.338 181.142 135.696 181.256 136.152C181.37 136.598 181.427 137.168 181.427 137.863V142.343H180.214V138.096C180.214 137.651 180.188 137.262 180.136 136.93C180.084 136.598 179.981 136.323 179.825 136.105C179.68 135.877 179.478 135.706 179.219 135.592C178.959 135.478 178.627 135.421 178.223 135.421C177.943 135.421 177.668 135.473 177.399 135.577C177.129 135.67 176.88 135.805 176.652 135.981C176.434 136.147 176.242 136.354 176.076 136.603C175.921 136.842 175.812 137.106 175.75 137.396V142.343H174.552V132.497H173.323V131.454ZM183.07 134.565H184.921V133.026L186.134 132.683V134.565H190.288V135.608H186.134V139.279C186.134 140.036 186.316 140.596 186.679 140.959C187.052 141.322 187.581 141.503 188.265 141.503C188.732 141.503 189.137 141.415 189.479 141.239C189.831 141.062 190.148 140.87 190.428 140.663L190.832 141.581C190.469 141.871 190.034 142.104 189.525 142.281C189.028 142.457 188.514 142.545 187.985 142.545C187.571 142.545 187.177 142.483 186.803 142.359C186.44 142.244 186.119 142.063 185.839 141.814C185.559 141.565 185.336 141.249 185.17 140.865C185.004 140.471 184.921 140.005 184.921 139.465V135.608H183.07V134.565ZM195.99 142.343V137.163C195.99 136.945 195.98 136.738 195.959 136.541C195.949 136.334 195.912 136.152 195.85 135.997C195.798 135.831 195.715 135.701 195.601 135.608C195.498 135.514 195.358 135.468 195.181 135.468C194.829 135.468 194.528 135.613 194.279 135.903C194.041 136.194 193.859 136.557 193.735 136.992V142.343H192.553V134.565H193.361L193.595 135.514H193.657C193.761 135.359 193.859 135.214 193.953 135.079C194.056 134.934 194.17 134.809 194.295 134.705C194.43 134.602 194.585 134.524 194.761 134.472C194.938 134.41 195.161 134.379 195.43 134.379C195.586 134.379 195.747 134.405 195.912 134.457C196.078 134.498 196.229 134.571 196.364 134.674C196.509 134.768 196.633 134.897 196.737 135.063C196.841 135.229 196.908 135.431 196.939 135.67C197.178 135.265 197.442 134.949 197.732 134.721C198.033 134.493 198.443 134.379 198.961 134.379C199.303 134.379 199.578 134.436 199.786 134.55C200.003 134.664 200.169 134.83 200.283 135.048C200.408 135.255 200.491 135.509 200.532 135.81C200.584 136.1 200.61 136.427 200.61 136.79V142.343H199.428V137.054C199.428 136.837 199.418 136.634 199.397 136.448C199.376 136.251 199.335 136.08 199.272 135.934C199.22 135.789 199.143 135.675 199.039 135.592C198.946 135.509 198.816 135.468 198.65 135.468C198.287 135.468 197.981 135.613 197.732 135.903C197.484 136.194 197.297 136.608 197.172 137.148V142.343H195.99ZM203.093 131.454H205.675V139.73C205.675 140.362 205.779 140.808 205.986 141.067C206.204 141.327 206.52 141.456 206.935 141.456C207.225 141.456 207.5 141.405 207.759 141.301C208.029 141.197 208.324 141.021 208.646 140.772L209.206 141.627C209.04 141.773 208.858 141.902 208.661 142.016C208.464 142.13 208.262 142.229 208.055 142.312C207.847 142.384 207.64 142.442 207.433 142.483C207.225 142.524 207.033 142.545 206.857 142.545C206.473 142.545 206.131 142.493 205.83 142.39C205.53 142.296 205.276 142.141 205.068 141.923C204.871 141.705 204.721 141.42 204.617 141.067C204.513 140.705 204.462 140.259 204.462 139.73V132.497H203.093V131.454ZM211.86 141.83L211.269 140.896L217.46 137.303L211.284 133.648L211.875 132.683L219.202 137.148V137.599L211.86 141.83Z" fill="black"/>
<path d="M231.908 182.478H145.889C143.128 182.478 140.889 184.717 140.889 187.478V212.045C140.889 214.806 143.128 217.045 145.889 217.045H231.908C234.669 217.045 236.908 214.806 236.908 212.045V187.478C236.908 184.717 234.669 182.478 231.908 182.478Z" fill="#87CEFA" stroke="black"/>
<path d="M164.634 200.092V199.641L171.96 195.176L172.552 196.141L166.376 199.796L172.567 203.389L171.976 204.323L164.634 200.092ZM173.292 193.947H175.781V197.945H175.859C176.128 197.603 176.476 197.338 176.901 197.152C177.326 196.965 177.787 196.872 178.285 196.872C180.567 196.872 181.707 198.189 181.707 200.823C181.707 202.161 181.339 203.187 180.603 203.903C179.867 204.608 178.819 204.96 177.461 204.96C176.818 204.96 176.237 204.898 175.719 204.774C175.2 204.649 174.822 204.504 174.583 204.338V194.99H173.292V193.947ZM178.13 197.914C177.507 197.914 177.005 198.09 176.621 198.443C176.237 198.795 175.957 199.293 175.781 199.936V203.514C176.019 203.638 176.305 203.737 176.636 203.809C176.968 203.882 177.316 203.918 177.679 203.918C178.093 203.918 178.467 203.861 178.799 203.747C179.141 203.623 179.431 203.436 179.67 203.187C179.908 202.928 180.09 202.601 180.214 202.207C180.349 201.813 180.416 201.346 180.416 200.807C180.416 200.413 180.375 200.04 180.292 199.687C180.209 199.335 180.074 199.029 179.887 198.77C179.711 198.5 179.478 198.293 179.187 198.147C178.897 197.992 178.544 197.914 178.13 197.914ZM183.475 200.947C183.475 199.692 183.801 198.702 184.454 197.976C185.108 197.24 186.041 196.872 187.254 196.872C187.908 196.872 188.468 196.981 188.934 197.198C189.411 197.406 189.805 197.691 190.117 198.054C190.428 198.417 190.656 198.847 190.801 199.345C190.956 199.843 191.034 200.377 191.034 200.947C191.034 201.569 190.951 202.135 190.785 202.643C190.619 203.141 190.376 203.566 190.054 203.918C189.733 204.271 189.334 204.546 188.857 204.743C188.39 204.929 187.856 205.023 187.254 205.023C186.611 205.023 186.051 204.919 185.574 204.712C185.097 204.494 184.703 204.203 184.392 203.84C184.081 203.478 183.848 203.047 183.692 202.549C183.547 202.052 183.475 201.518 183.475 200.947ZM184.766 200.947C184.766 201.31 184.807 201.673 184.89 202.036C184.983 202.399 185.129 202.726 185.326 203.016C185.523 203.306 185.777 203.54 186.088 203.716C186.409 203.892 186.798 203.98 187.254 203.98C188.084 203.98 188.706 203.726 189.121 203.218C189.546 202.7 189.759 201.943 189.759 200.947C189.759 200.574 189.712 200.211 189.619 199.858C189.536 199.495 189.391 199.169 189.183 198.878C188.986 198.588 188.727 198.355 188.405 198.178C188.094 198.002 187.711 197.914 187.254 197.914C186.425 197.914 185.803 198.168 185.388 198.676C184.973 199.184 184.766 199.941 184.766 200.947ZM197.344 193.947H199.863V202.176C199.863 202.269 199.869 202.389 199.879 202.534C199.889 202.669 199.9 202.814 199.91 202.969C199.931 203.125 199.952 203.28 199.972 203.436C199.993 203.581 200.014 203.711 200.035 203.825H201.077V204.836H199.008L198.852 203.638H198.79C198.562 204.032 198.22 204.364 197.763 204.634C197.318 204.893 196.799 205.023 196.208 205.023C195.036 205.023 194.17 204.696 193.61 204.043C193.061 203.379 192.786 202.352 192.786 200.963C192.786 200.309 192.879 199.734 193.066 199.236C193.253 198.728 193.517 198.308 193.859 197.976C194.212 197.634 194.632 197.375 195.119 197.198C195.607 197.022 196.151 196.934 196.752 196.934C196.97 196.934 197.162 196.939 197.328 196.95C197.504 196.96 197.665 196.976 197.81 196.996C197.955 197.017 198.09 197.048 198.215 197.09C198.349 197.121 198.495 197.157 198.65 197.198V194.99H197.344V193.947ZM196.41 203.98C197.043 203.98 197.541 203.82 197.903 203.498C198.266 203.166 198.515 202.674 198.65 202.021V198.412C198.422 198.256 198.163 198.142 197.872 198.07C197.592 197.997 197.219 197.961 196.752 197.961C195.923 197.961 195.27 198.204 194.792 198.692C194.315 199.169 194.077 199.926 194.077 200.963C194.077 201.388 194.113 201.787 194.186 202.161C194.269 202.523 194.398 202.84 194.575 203.109C194.761 203.379 195.005 203.592 195.306 203.747C195.607 203.903 195.975 203.98 196.41 203.98ZM206.079 203.638H206.67L208.599 197.058H209.859L207.697 204.043C207.583 204.406 207.464 204.815 207.339 205.272C207.225 205.738 207.059 206.174 206.842 206.578C206.624 206.983 206.328 207.325 205.955 207.605C205.582 207.885 205.094 208.025 204.493 208.025C204.358 208.025 204.213 208.009 204.057 207.978C203.912 207.947 203.767 207.906 203.622 207.854C203.476 207.812 203.342 207.76 203.217 207.698C203.093 207.636 202.999 207.574 202.937 207.511L203.373 206.391C203.435 206.443 203.518 206.495 203.622 206.547C203.736 206.599 203.855 206.64 203.979 206.671C204.114 206.713 204.244 206.744 204.368 206.765C204.493 206.796 204.596 206.811 204.679 206.811C205.457 206.811 205.986 206.153 206.266 204.836H205.224L201.957 197.058H203.357L206.079 203.638ZM211.86 204.323L211.269 203.389L217.46 199.796L211.284 196.141L211.875 195.176L219.202 199.641V200.092L211.86 204.323Z" fill="black"/>
<path d="M231.908 242.97H145.889C143.128 242.97 140.889 245.209 140.889 247.97V272.537C140.889 275.298 143.128 277.537 145.889 277.537H231.908C234.669 277.537 236.908 275.298 236.908 272.537V247.97C236.908 245.209 234.669 242.97 231.908 242.97Z" fill="#87CEFA" stroke="black"/>
<path d="M161.634 260.584V260.133L168.96 255.668L169.552 256.633L163.376 260.288L169.567 263.881L168.976 264.815L161.634 260.584ZM171.63 265.328V264.286H173.481V258.593H171.63V257.55H173.481V257.115C173.481 256.14 173.735 255.435 174.243 254.999C174.751 254.564 175.477 254.346 176.421 254.346C176.763 254.346 177.069 254.367 177.338 254.408C177.608 254.45 177.898 254.533 178.21 254.657L177.93 255.668C177.66 255.554 177.401 255.482 177.152 255.451C176.903 255.409 176.675 255.388 176.467 255.388C175.783 255.388 175.316 255.559 175.067 255.902C174.819 256.233 174.694 256.783 174.694 257.55H177.914V258.593H174.694V264.286H177.914V265.328H171.63ZM180.475 261.439C180.475 260.184 180.801 259.194 181.454 258.468C182.108 257.732 183.041 257.364 184.254 257.364C184.908 257.364 185.468 257.473 185.934 257.69C186.411 257.898 186.805 258.183 187.117 258.546C187.428 258.909 187.656 259.339 187.801 259.837C187.956 260.335 188.034 260.869 188.034 261.439C188.034 262.061 187.951 262.627 187.785 263.135C187.619 263.632 187.376 264.058 187.054 264.41C186.733 264.763 186.334 265.038 185.857 265.235C185.39 265.421 184.856 265.515 184.254 265.515C183.611 265.515 183.051 265.411 182.574 265.204C182.097 264.986 181.703 264.695 181.392 264.332C181.081 263.97 180.848 263.539 180.692 263.041C180.547 262.544 180.475 262.01 180.475 261.439ZM181.766 261.439C181.766 261.802 181.807 262.165 181.89 262.528C181.983 262.891 182.129 263.218 182.326 263.508C182.523 263.798 182.777 264.032 183.088 264.208C183.409 264.384 183.798 264.472 184.254 264.472C185.084 264.472 185.706 264.218 186.121 263.71C186.546 263.192 186.759 262.435 186.759 261.439C186.759 261.066 186.712 260.703 186.619 260.35C186.536 259.987 186.391 259.661 186.183 259.37C185.986 259.08 185.727 258.847 185.405 258.67C185.094 258.494 184.711 258.406 184.254 258.406C183.425 258.406 182.803 258.66 182.388 259.168C181.973 259.676 181.766 260.433 181.766 261.439ZM189.941 265.328V264.286H192.041V258.593H189.941V257.55H192.85L193.099 258.562H193.177C193.529 258.24 193.924 257.965 194.359 257.737C194.795 257.509 195.313 257.395 195.915 257.395C196.267 257.395 196.547 257.462 196.755 257.597C196.972 257.732 197.138 257.929 197.252 258.188C197.377 258.447 197.46 258.764 197.501 259.137C197.543 259.5 197.563 259.915 197.563 260.381L196.475 260.397C196.475 259.733 196.407 259.246 196.272 258.935C196.148 258.624 195.915 258.468 195.572 258.468C195.251 258.468 194.961 258.515 194.701 258.608C194.442 258.702 194.214 258.816 194.017 258.95C193.83 259.085 193.669 259.22 193.535 259.355C193.4 259.49 193.301 259.604 193.239 259.697V264.286H196.226V265.328H189.941ZM202.317 265.328V260.148C202.317 259.93 202.307 259.723 202.286 259.526C202.276 259.319 202.239 259.137 202.177 258.982C202.125 258.816 202.042 258.686 201.928 258.593C201.825 258.499 201.685 258.453 201.508 258.453C201.156 258.453 200.855 258.598 200.606 258.888C200.368 259.179 200.186 259.542 200.062 259.977V265.328H198.879V257.55H199.688L199.922 258.499H199.984C200.088 258.344 200.186 258.199 200.279 258.064C200.383 257.919 200.497 257.794 200.622 257.69C200.756 257.587 200.912 257.509 201.088 257.457C201.265 257.395 201.488 257.364 201.757 257.364C201.913 257.364 202.073 257.39 202.239 257.442C202.405 257.483 202.556 257.556 202.69 257.659C202.836 257.753 202.96 257.882 203.064 258.048C203.167 258.214 203.235 258.416 203.266 258.655C203.505 258.25 203.769 257.934 204.059 257.706C204.36 257.478 204.77 257.364 205.288 257.364C205.63 257.364 205.905 257.421 206.113 257.535C206.33 257.649 206.496 257.815 206.61 258.033C206.735 258.24 206.818 258.494 206.859 258.795C206.911 259.085 206.937 259.412 206.937 259.775V265.328H205.755V260.039C205.755 259.822 205.744 259.619 205.724 259.433C205.703 259.236 205.661 259.064 205.599 258.919C205.547 258.774 205.47 258.66 205.366 258.577C205.273 258.494 205.143 258.453 204.977 258.453C204.614 258.453 204.308 258.598 204.059 258.888C203.81 259.179 203.624 259.593 203.499 260.133V265.328H202.317ZM208.86 264.815L208.269 263.881L214.46 260.288L208.284 256.633L208.875 255.668L216.202 260.133V260.584L208.86 264.815Z" fill="black"/>
<path d="M231.908 303.463H145.889C143.128 303.463 140.889 305.702 140.889 308.463V333.03C140.889 335.791 143.128 338.03 145.889 338.03H231.908C234.669 338.03 236.908 335.791 236.908 333.03V308.463C236.908 305.702 234.669 303.463 231.908 303.463Z" fill="#87CEFA" stroke="black"/>
<path d="M160.793 322.077V321.626L168.119 317.161L168.711 318.126L162.535 321.781L168.726 325.374L168.135 326.308L160.793 322.077ZM174.849 315.933H177.369V324.161C177.369 324.254 177.374 324.374 177.384 324.519C177.394 324.654 177.405 324.799 177.415 324.954C177.436 325.11 177.457 325.266 177.477 325.421C177.498 325.566 177.519 325.696 177.54 325.81H178.582V326.821H176.513L176.357 325.623H176.295C176.067 326.017 175.725 326.349 175.269 326.619C174.823 326.878 174.304 327.008 173.713 327.008C172.541 327.008 171.675 326.681 171.115 326.028C170.566 325.364 170.291 324.337 170.291 322.948C170.291 322.295 170.384 321.719 170.571 321.221C170.758 320.713 171.022 320.293 171.364 319.961C171.717 319.619 172.137 319.36 172.624 319.184C173.112 319.007 173.656 318.919 174.258 318.919C174.475 318.919 174.667 318.924 174.833 318.935C175.009 318.945 175.17 318.961 175.315 318.981C175.46 319.002 175.595 319.033 175.72 319.075C175.855 319.106 176 319.142 176.155 319.184V316.975H174.849V315.933ZM173.915 325.965C174.548 325.965 175.046 325.805 175.409 325.483C175.772 325.151 176.02 324.659 176.155 324.006V320.397C175.927 320.241 175.668 320.127 175.378 320.055C175.098 319.982 174.724 319.946 174.258 319.946C173.428 319.946 172.775 320.189 172.298 320.677C171.821 321.154 171.582 321.911 171.582 322.948C171.582 323.373 171.618 323.772 171.691 324.146C171.774 324.509 171.904 324.825 172.08 325.094C172.267 325.364 172.51 325.577 172.811 325.732C173.112 325.888 173.48 325.965 173.915 325.965ZM180.38 326.821V325.779H183.087V320.086H180.38V319.044H184.331V325.779H186.975V326.821H180.38ZM182.667 316.835C182.667 316.555 182.76 316.316 182.947 316.119C183.133 315.912 183.372 315.808 183.662 315.808C183.963 315.808 184.212 315.912 184.409 316.119C184.616 316.316 184.72 316.555 184.72 316.835C184.72 317.104 184.616 317.332 184.409 317.519C184.212 317.706 183.963 317.799 183.662 317.799C183.372 317.799 183.133 317.706 182.947 317.519C182.76 317.332 182.667 317.104 182.667 316.835ZM192.771 325.312H192.943L195.385 319.044H196.738L193.456 326.821H192.087L188.743 319.044H190.174L192.771 325.312ZM198.692 326.308L198.101 325.374L204.292 321.781L198.116 318.126L198.707 317.161L206.034 321.626V322.077L198.692 326.308Z" fill="black"/>
<path d="M229.13 369.015H143.111C140.35 369.015 138.111 371.254 138.111 374.015V398.582C138.111 401.343 140.35 403.582 143.111 403.582H229.13C231.891 403.582 234.13 401.343 234.13 398.582V374.015C234.13 371.254 231.891 369.015 229.13 369.015Z" fill="#0000FF" stroke="black"/>
<path d="M168.657 385.086V384.635L175.983 380.17L176.574 381.135L170.399 384.79L176.59 388.383L175.999 389.317L168.657 385.086ZM178.777 384.775C178.777 384.681 178.772 384.562 178.762 384.417C178.762 384.261 178.756 384.106 178.746 383.95C178.736 383.784 178.72 383.624 178.699 383.468C178.689 383.312 178.674 383.178 178.653 383.064H177.611V382.053H179.679L179.835 383.141H179.913C180.193 382.778 180.545 382.478 180.97 382.239C181.406 381.99 181.935 381.866 182.557 381.866C183.667 381.866 184.501 382.172 185.061 382.784C185.621 383.395 185.901 384.396 185.901 385.786C185.901 386.439 185.803 387.03 185.606 387.559C185.419 388.077 185.15 388.518 184.797 388.881C184.444 389.244 184.019 389.524 183.522 389.721C183.024 389.918 182.474 390.017 181.873 390.017C181.655 390.017 181.458 390.006 181.282 389.986C181.116 389.975 180.96 389.954 180.815 389.923C180.68 389.903 180.545 389.871 180.411 389.83C180.276 389.789 180.131 389.737 179.975 389.674V392.941H178.777V384.775ZM182.355 383.001C182.044 383.001 181.748 383.058 181.468 383.172C181.199 383.287 180.955 383.437 180.737 383.624C180.53 383.81 180.359 384.018 180.224 384.246C180.089 384.474 180.006 384.702 179.975 384.93V388.477C180.203 388.632 180.457 388.757 180.737 388.85C181.028 388.933 181.406 388.974 181.873 388.974C182.702 388.974 183.366 388.705 183.864 388.166C184.361 387.616 184.61 386.818 184.61 385.77C184.61 384.889 184.434 384.209 184.081 383.732C183.739 383.245 183.164 383.001 182.355 383.001ZM187.902 389.317L187.311 388.383L193.502 384.79L187.326 381.135L187.917 380.17L195.244 384.635V385.086L187.902 389.317Z" fill="white"/>
<path d="M75.4311 404.879H73.9964V393.815H70.0889V392.541H79.3386V393.815H75.4311V404.879ZM86.6809 404.879L86.4024 403.562H86.3349C85.8735 404.142 85.4122 404.536 84.9508 404.744C84.4951 404.947 83.924 405.048 83.2376 405.048C82.3205 405.048 81.6003 404.812 81.0771 404.339C80.5595 403.866 80.3007 403.194 80.3007 402.322C80.3007 400.454 81.7944 399.475 84.782 399.385L86.3517 399.334V398.76C86.3517 398.035 86.1942 397.5 85.8791 397.157C85.5697 396.808 85.0718 396.634 84.3854 396.634C83.6146 396.634 82.7425 396.87 81.7691 397.343L81.3387 396.271C81.7944 396.023 82.2924 395.829 82.8325 395.688C83.3782 395.548 83.924 395.477 84.4698 395.477C85.5725 395.477 86.3883 395.722 86.9172 396.212C87.4517 396.701 87.7189 397.486 87.7189 398.566V404.879H86.6809ZM83.5161 403.892C84.3882 403.892 85.0718 403.652 85.5669 403.174C86.0676 402.696 86.318 402.026 86.318 401.166V400.33L84.917 400.389C83.803 400.429 82.9985 400.603 82.5034 400.912C82.0139 401.216 81.7691 401.692 81.7691 402.339C81.7691 402.845 81.921 403.231 82.2249 403.495C82.5343 403.759 82.9647 403.892 83.5161 403.892ZM94.8334 395.461C95.2441 395.461 95.6126 395.494 95.939 395.562L95.7449 396.862C95.3623 396.777 95.0247 396.735 94.7321 396.735C93.9838 396.735 93.3424 397.039 92.8079 397.646C92.2791 398.254 92.0146 399.011 92.0146 399.917V404.879H90.6137V395.629H91.7699L91.9302 397.343H91.9977C92.3409 396.741 92.7545 396.276 93.2383 395.95C93.7222 395.624 94.2539 395.461 94.8334 395.461ZM105.239 395.629V396.516L103.526 396.718C103.684 396.915 103.824 397.174 103.948 397.495C104.072 397.81 104.134 398.167 104.134 398.566C104.134 399.472 103.824 400.195 103.205 400.735C102.586 401.275 101.737 401.545 100.657 401.545C100.381 401.545 100.122 401.523 99.8802 401.478C99.2838 401.793 98.9856 402.19 98.9856 402.668C98.9856 402.921 99.0897 403.11 99.2979 403.233C99.506 403.351 99.8633 403.411 100.37 403.411H102.007C103.008 403.411 103.776 403.622 104.311 404.044C104.851 404.465 105.121 405.079 105.121 405.883C105.121 406.907 104.71 407.687 103.889 408.221C103.067 408.761 101.869 409.031 100.294 409.031C99.0841 409.031 98.1501 408.806 97.4918 408.356C96.8392 407.906 96.5129 407.27 96.5129 406.449C96.5129 405.886 96.6929 405.399 97.053 404.989C97.4131 404.578 97.9194 404.3 98.5721 404.153C98.3358 404.046 98.136 403.88 97.9729 403.655C97.8153 403.43 97.7366 403.169 97.7366 402.87C97.7366 402.533 97.8266 402.237 98.0066 401.984C98.1867 401.731 98.4708 401.486 98.859 401.25C98.3808 401.053 97.9898 400.718 97.6859 400.246C97.3877 399.773 97.2386 399.233 97.2386 398.625C97.2386 397.613 97.5425 396.833 98.1501 396.288C98.7577 395.736 99.6186 395.461 100.733 395.461C101.216 395.461 101.652 395.517 102.041 395.629H105.239ZM97.8632 406.432C97.8632 406.933 98.0741 407.312 98.4961 407.571C98.9181 407.83 99.5229 407.959 100.311 407.959C101.487 407.959 102.356 407.782 102.918 407.428C103.487 407.079 103.771 406.603 103.771 406.001C103.771 405.501 103.616 405.152 103.307 404.955C102.997 404.764 102.415 404.668 101.56 404.668H99.8802C99.2444 404.668 98.7493 404.82 98.3948 405.124C98.0404 405.428 97.8632 405.864 97.8632 406.432ZM98.6227 398.592C98.6227 399.239 98.8056 399.728 99.1713 400.06C99.537 400.392 100.046 400.558 100.699 400.558C102.066 400.558 102.75 399.894 102.75 398.566C102.75 397.177 102.058 396.482 100.674 396.482C100.015 396.482 99.5089 396.659 99.1544 397.013C98.7999 397.368 98.6227 397.894 98.6227 398.592ZM111.046 405.048C109.678 405.048 108.598 404.631 107.805 403.799C107.017 402.966 106.623 401.81 106.623 400.33C106.623 398.839 106.989 397.655 107.72 396.777C108.457 395.899 109.445 395.461 110.683 395.461C111.842 395.461 112.759 395.843 113.434 396.608C114.109 397.368 114.447 398.372 114.447 399.621V400.507H108.075C108.103 401.593 108.376 402.418 108.894 402.98C109.417 403.543 110.151 403.824 111.096 403.824C112.092 403.824 113.077 403.616 114.05 403.2V404.449C113.555 404.662 113.085 404.814 112.641 404.904C112.202 405 111.67 405.048 111.046 405.048ZM110.666 396.634C109.923 396.634 109.33 396.876 108.885 397.359C108.446 397.843 108.187 398.513 108.109 399.368H112.944C112.944 398.485 112.748 397.81 112.354 397.343C111.96 396.87 111.397 396.634 110.666 396.634ZM119.831 403.892C120.079 403.892 120.318 403.875 120.548 403.841C120.779 403.802 120.962 403.762 121.097 403.723V404.795C120.945 404.868 120.72 404.927 120.422 404.972C120.129 405.022 119.865 405.048 119.629 405.048C117.839 405.048 116.945 404.105 116.945 402.221V396.718H115.62V396.043L116.945 395.461L117.536 393.486H118.346V395.629H121.029V396.718H118.346V402.162C118.346 402.719 118.478 403.146 118.742 403.444C119.007 403.743 119.37 403.892 119.831 403.892Z" fill="#0000FF"/>
<path d="M78.9767 413.419C78.9767 414.668 78.5491 415.63 77.6939 416.305C76.8444 416.975 75.6263 417.309 74.0397 417.309H72.5881V422.162H71.1534V409.824H74.3519C77.4351 409.824 78.9767 411.022 78.9767 413.419ZM72.5881 416.077H73.8793C75.1508 416.077 76.0707 415.872 76.639 415.461C77.2073 415.05 77.4914 414.392 77.4914 413.486C77.4914 412.67 77.2241 412.063 76.6896 411.663C76.1551 411.264 75.3225 411.064 74.1916 411.064H72.5881V416.077ZM87.6863 422.162V416.178C87.6863 415.424 87.5146 414.862 87.1714 414.491C86.8282 414.119 86.2909 413.934 85.5595 413.934C84.5862 413.934 83.8744 414.198 83.4243 414.727C82.9798 415.256 82.7576 416.122 82.7576 417.326V422.162H81.3567V409.03H82.7576V413.005C82.7576 413.483 82.7351 413.88 82.6901 414.195H82.7745C83.0502 413.751 83.4412 413.402 83.9476 413.149C84.4596 412.89 85.0419 412.76 85.6945 412.76C86.8254 412.76 87.6722 413.03 88.2348 413.571C88.8031 414.105 89.0872 414.958 89.0872 416.128V422.162H87.6863ZM97.6617 422.162L97.3832 420.845H97.3157C96.8543 421.425 96.393 421.819 95.9316 422.027C95.4759 422.23 94.9048 422.331 94.2184 422.331C93.3013 422.331 92.5811 422.094 92.0579 421.622C91.5403 421.149 91.2815 420.477 91.2815 419.605C91.2815 417.737 92.7752 416.758 95.7628 416.668L97.3325 416.617V416.043C97.3325 415.318 97.175 414.783 96.8599 414.44C96.5505 414.091 96.0526 413.917 95.3662 413.917C94.5954 413.917 93.7233 414.153 92.7499 414.626L92.3195 413.554C92.7752 413.306 93.2732 413.112 93.8133 412.971C94.359 412.831 94.9048 412.76 95.4505 412.76C96.5533 412.76 97.3691 413.005 97.898 413.495C98.4325 413.984 98.6997 414.769 98.6997 415.849V422.162H97.6617ZM94.4969 421.175C95.369 421.175 96.0526 420.935 96.5477 420.457C97.0484 419.979 97.2988 419.309 97.2988 418.449V417.613L95.8978 417.672C94.7838 417.712 93.9793 417.886 93.4842 418.195C92.9947 418.499 92.7499 418.975 92.7499 419.622C92.7499 420.128 92.9018 420.513 93.2057 420.778C93.5151 421.042 93.9455 421.175 94.4969 421.175ZM107.561 419.639C107.561 420.499 107.24 421.163 106.599 421.63C105.958 422.097 105.057 422.331 103.898 422.331C102.672 422.331 101.715 422.137 101.029 421.748V420.449C101.474 420.674 101.949 420.851 102.455 420.98C102.967 421.11 103.46 421.175 103.932 421.175C104.664 421.175 105.226 421.059 105.62 420.829C106.014 420.592 106.211 420.235 106.211 419.757C106.211 419.397 106.053 419.09 105.738 418.837C105.429 418.578 104.821 418.274 103.915 417.925C103.054 417.605 102.441 417.326 102.076 417.09C101.715 416.848 101.445 416.575 101.265 416.271C101.091 415.967 101.004 415.605 101.004 415.183C101.004 414.429 101.31 413.835 101.924 413.402C102.537 412.963 103.378 412.744 104.447 412.744C105.443 412.744 106.416 412.946 107.367 413.351L106.869 414.491C105.941 414.108 105.1 413.917 104.346 413.917C103.682 413.917 103.181 414.021 102.844 414.229C102.506 414.437 102.337 414.724 102.337 415.09C102.337 415.337 102.399 415.548 102.523 415.723C102.652 415.897 102.858 416.063 103.139 416.221C103.42 416.378 103.96 416.606 104.759 416.904C105.856 417.304 106.596 417.706 106.979 418.111C107.367 418.516 107.561 419.025 107.561 419.639ZM113.756 422.331C112.389 422.331 111.308 421.914 110.515 421.082C109.727 420.249 109.333 419.093 109.333 417.613C109.333 416.122 109.699 414.938 110.431 414.06C111.168 413.182 112.155 412.744 113.393 412.744C114.552 412.744 115.469 413.126 116.144 413.891C116.819 414.651 117.157 415.655 117.157 416.904V417.79H110.785C110.813 418.876 111.086 419.7 111.604 420.263C112.127 420.826 112.861 421.107 113.806 421.107C114.802 421.107 115.787 420.899 116.76 420.483V421.732C116.265 421.945 115.795 422.097 115.351 422.187C114.912 422.283 114.38 422.331 113.756 422.331ZM113.376 413.917C112.633 413.917 112.04 414.159 111.595 414.642C111.156 415.126 110.898 415.796 110.819 416.651H115.655C115.655 415.768 115.458 415.093 115.064 414.626C114.67 414.153 114.107 413.917 113.376 413.917Z" fill="#0000FF"/>
<path d="M93.512 434.711C93.512 433.22 93.7287 431.825 94.1619 430.525C94.6007 429.226 95.2309 428.086 96.0523 427.108H97.4195C96.6093 428.193 95.9989 429.386 95.5881 430.686C95.1831 431.986 94.9805 433.322 94.9805 434.695C94.9805 436.045 95.1887 437.364 95.605 438.653C96.0214 439.941 96.6206 441.117 97.4026 442.18H96.0523C95.2253 441.224 94.5951 440.107 94.1619 438.83C93.7287 437.553 93.512 436.18 93.512 434.711ZM106.889 439.446H98.7783V438.239L102.027 434.973C103.018 433.972 103.67 433.257 103.985 432.829C104.3 432.402 104.537 431.986 104.694 431.58C104.852 431.175 104.931 430.739 104.931 430.272C104.931 429.614 104.731 429.094 104.331 428.711C103.932 428.323 103.378 428.129 102.669 428.129C102.157 428.129 101.67 428.213 101.209 428.382C100.753 428.551 100.244 428.857 99.6813 429.302L98.9386 428.348C100.075 427.403 101.313 426.93 102.652 426.93C103.811 426.93 104.72 427.228 105.378 427.825C106.036 428.416 106.365 429.212 106.365 430.213C106.365 430.995 106.146 431.769 105.707 432.534C105.268 433.299 104.447 434.267 103.243 435.437L100.542 438.079V438.146H106.889V439.446ZM112.248 434.711C112.248 436.191 112.028 437.57 111.589 438.847C111.156 440.124 110.529 441.235 109.707 442.18H108.357C109.139 441.123 109.738 439.95 110.155 438.661C110.571 437.367 110.779 436.045 110.779 434.695C110.779 433.322 110.574 431.986 110.163 430.686C109.758 429.386 109.15 428.193 108.34 427.108H109.707C110.534 428.092 111.165 429.237 111.598 430.542C112.031 431.842 112.248 433.232 112.248 434.711Z" fill="#0000FF"/>
<path d="M229.13 369.015H143.111C140.35 369.015 138.111 371.254 138.111 374.015V398.582C138.111 401.343 140.35 403.582 143.111 403.582H229.13C231.891 403.582 234.13 401.343 234.13 398.582V374.015C234.13 371.254 231.891 369.015 229.13 369.015Z" stroke="black" stroke-width="5"/>
<path d="M7.67944 172.541C6.3235 172.541 5.25169 172.994 4.46401 173.9C3.68195 174.8 3.29092 176.035 3.29092 177.605C3.29092 179.219 3.66789 180.469 4.42181 181.352C5.18136 182.23 6.26161 182.668 7.66256 182.668C8.52339 182.668 9.50518 182.514 10.6079 182.204V183.462C9.75273 183.782 8.6978 183.943 7.44314 183.943C5.62584 183.943 4.22208 183.391 3.23185 182.289C2.24725 181.186 1.75494 179.619 1.75494 177.588C1.75494 176.316 1.99125 175.202 2.46386 174.246C2.94209 173.289 3.6285 172.552 4.52308 172.035C5.42329 171.517 6.48104 171.258 7.69632 171.258C8.99037 171.258 10.1213 171.495 11.089 171.967L10.4813 173.199C9.54737 172.761 8.61341 172.541 7.67944 172.541ZM18.7773 183.774L18.4988 182.457H18.4313C17.9699 183.037 17.5086 183.431 17.0472 183.639C16.5915 183.842 16.0204 183.943 15.334 183.943C14.4169 183.943 13.6968 183.706 13.1735 183.234C12.6559 182.761 12.3971 182.089 12.3971 181.217C12.3971 179.349 13.8909 178.37 16.8784 178.28L18.4482 178.229V177.655C18.4482 176.93 18.2906 176.395 17.9756 176.052C17.6661 175.703 17.1682 175.529 16.4818 175.529C15.711 175.529 14.8389 175.765 13.8656 176.238L13.4351 175.166C13.8909 174.918 14.3888 174.724 14.9289 174.583C15.4747 174.443 16.0204 174.372 16.5662 174.372C17.6689 174.372 18.4848 174.617 19.0136 175.107C19.5481 175.596 19.8154 176.381 19.8154 177.461V183.774H18.7773ZM15.6125 182.787C16.4846 182.787 17.1682 182.547 17.6633 182.069C18.1641 181.591 18.4144 180.921 18.4144 180.061V179.225L17.0135 179.284C15.8995 179.324 15.0949 179.498 14.5998 179.807C14.1103 180.111 13.8656 180.587 13.8656 181.234C13.8656 181.74 14.0175 182.125 14.3213 182.39C14.6307 182.654 15.0611 182.787 15.6125 182.787ZM27.0142 183.943C26.4122 183.943 25.8608 183.833 25.3601 183.614C24.865 183.389 24.4486 183.045 24.1111 182.584H24.0098C24.0773 183.124 24.1111 183.636 24.1111 184.12V187.926H22.7101V174.524H23.8494L24.0435 175.79H24.1111C24.4711 175.284 24.8903 174.918 25.3685 174.693C25.8468 174.468 26.3953 174.356 27.0142 174.356C28.2408 174.356 29.186 174.775 29.8499 175.613C30.5194 176.451 30.8542 177.627 30.8542 179.141C30.8542 180.66 30.5138 181.841 29.833 182.685C29.1578 183.524 28.2183 183.943 27.0142 183.943ZM26.8117 175.546C25.8665 175.546 25.1829 175.807 24.7609 176.33C24.3389 176.854 24.1223 177.686 24.1111 178.828V179.141C24.1111 180.44 24.3277 181.372 24.7609 181.934C25.1941 182.491 25.889 182.77 26.8454 182.77C27.6444 182.77 28.2689 182.446 28.719 181.799C29.1747 181.152 29.4026 180.26 29.4026 179.124C29.4026 177.97 29.1747 177.087 28.719 176.474C28.2689 175.855 27.6331 175.546 26.8117 175.546ZM36.2976 182.787C36.5452 182.787 36.7843 182.77 37.015 182.736C37.2457 182.697 37.4285 182.657 37.5635 182.618V183.69C37.4116 183.763 37.1866 183.822 36.8884 183.867C36.5958 183.917 36.3314 183.943 36.0951 183.943C34.3059 183.943 33.4113 183 33.4113 181.116V175.613H32.0863V174.938L33.4113 174.356L34.0021 172.381H34.8123V174.524H37.496V175.613H34.8123V181.056C34.8123 181.613 34.9445 182.041 35.2089 182.339C35.4734 182.637 35.8363 182.787 36.2976 182.787ZM40.7368 174.524V180.525C40.7368 181.279 40.9084 181.841 41.2516 182.213C41.5948 182.584 42.1321 182.77 42.8635 182.77C43.8312 182.77 44.5373 182.505 44.9818 181.976C45.4319 181.448 45.657 180.584 45.657 179.385V174.524H47.0579V183.774H45.9017L45.6992 182.533H45.6232C45.3363 182.989 44.9368 183.338 44.4248 183.58C43.9185 183.822 43.3389 183.943 42.6863 183.943C41.561 183.943 40.7171 183.676 40.1545 183.141C39.5975 182.607 39.3189 181.751 39.3189 180.575V174.524H40.7368ZM54.2568 174.356C54.6675 174.356 55.036 174.389 55.3624 174.457L55.1682 175.757C54.7857 175.672 54.4481 175.63 54.1555 175.63C53.4072 175.63 52.7658 175.934 52.2313 176.541C51.7024 177.149 51.438 177.906 51.438 178.812V183.774H50.0371V174.524H51.1933L51.3536 176.238H51.4211C51.7643 175.636 52.1779 175.171 52.6617 174.845C53.1456 174.519 53.6773 174.356 54.2568 174.356ZM60.9999 183.943C59.6327 183.943 58.5525 183.526 57.7592 182.694C56.9715 181.861 56.5776 180.705 56.5776 179.225C56.5776 177.734 56.9433 176.55 57.6748 175.672C58.4118 174.794 59.3992 174.356 60.637 174.356C61.796 174.356 62.7131 174.738 63.3883 175.503C64.0634 176.263 64.401 177.267 64.401 178.516V179.402H58.0292C58.0573 180.488 58.3302 181.312 58.8478 181.875C59.3711 182.438 60.1053 182.719 61.0505 182.719C62.0464 182.719 63.031 182.511 64.0043 182.095V183.344C63.5092 183.557 63.0394 183.709 62.595 183.799C62.1561 183.895 61.6244 183.943 60.9999 183.943ZM60.6201 175.529C59.8775 175.529 59.2839 175.771 58.8394 176.254C58.4006 176.738 58.1417 177.408 58.063 178.263H62.8988C62.8988 177.38 62.7019 176.705 62.308 176.238C61.9142 175.765 61.3515 175.529 60.6201 175.529Z" fill="#FF0000"/>
<path d="M17.4207 192.315C17.4207 193.564 16.9931 194.526 16.1379 195.201C15.2883 195.871 14.0702 196.205 12.4836 196.205H11.032V201.058H9.59733V188.72H12.7959C15.8791 188.72 17.4207 189.918 17.4207 192.315ZM11.032 194.973H12.3233C13.5948 194.973 14.5147 194.768 15.083 194.357C15.6512 193.946 15.9354 193.288 15.9354 192.382C15.9354 191.566 15.6681 190.959 15.1336 190.559C14.5991 190.16 13.7664 189.96 12.6355 189.96H11.032V194.973ZM26.1302 201.058V195.074C26.1302 194.32 25.9586 193.758 25.6154 193.387C25.2722 193.015 24.7349 192.83 24.0035 192.83C23.0301 192.83 22.3184 193.094 21.8683 193.623C21.4238 194.152 21.2016 195.018 21.2016 196.222V201.058H19.8006V187.926H21.2016V191.901C21.2016 192.379 21.1791 192.776 21.1341 193.091H21.2185C21.4941 192.647 21.8852 192.298 22.3915 192.045C22.9035 191.786 23.4859 191.656 24.1385 191.656C25.2694 191.656 26.1162 191.926 26.6788 192.467C27.247 193.001 27.5312 193.854 27.5312 195.024V201.058H26.1302ZM36.1057 201.058L35.8272 199.741H35.7596C35.2983 200.321 34.8369 200.715 34.3756 200.923C33.9198 201.125 33.3488 201.227 32.6624 201.227C31.7453 201.227 31.0251 200.99 30.5019 200.518C29.9842 200.045 29.7254 199.373 29.7254 198.501C29.7254 196.633 31.2192 195.654 34.2068 195.564L35.7765 195.513V194.939C35.7765 194.214 35.619 193.679 35.3039 193.336C34.9945 192.987 34.4965 192.813 33.8101 192.813C33.0393 192.813 32.1672 193.049 31.1939 193.522L30.7635 192.45C31.2192 192.202 31.7171 192.008 32.2573 191.867C32.803 191.727 33.3488 191.656 33.8945 191.656C34.9973 191.656 35.8131 191.901 36.342 192.391C36.8765 192.88 37.1437 193.665 37.1437 194.745V201.058H36.1057ZM32.9409 200.071C33.8129 200.071 34.4965 199.831 34.9916 199.353C35.4924 198.875 35.7428 198.205 35.7428 197.345V196.509L34.3418 196.568C33.2278 196.608 32.4232 196.782 31.9281 197.091C31.4386 197.395 31.1939 197.871 31.1939 198.518C31.1939 199.024 31.3458 199.409 31.6496 199.674C31.9591 199.938 32.3895 200.071 32.9409 200.071ZM46.0051 198.535C46.0051 199.395 45.6844 200.059 45.043 200.526C44.4016 200.993 43.5014 201.227 42.3424 201.227C41.1159 201.227 40.1594 201.033 39.473 200.644V199.345C39.9175 199.57 40.3929 199.747 40.8993 199.876C41.4113 200.006 41.9036 200.071 42.3762 200.071C43.1076 200.071 43.6702 199.955 44.0641 199.725C44.4579 199.488 44.6548 199.131 44.6548 198.653C44.6548 198.293 44.4973 197.986 44.1822 197.733C43.8728 197.474 43.2651 197.17 42.3593 196.821C41.4985 196.501 40.8852 196.222 40.5195 195.986C40.1594 195.744 39.8893 195.471 39.7093 195.167C39.5349 194.863 39.4477 194.501 39.4477 194.079C39.4477 193.325 39.7543 192.731 40.3676 192.298C40.9808 191.859 41.822 191.64 42.891 191.64C43.8868 191.64 44.8602 191.842 45.811 192.247L45.3131 193.387C44.3848 193.004 43.5436 192.813 42.7897 192.813C42.1258 192.813 41.6251 192.917 41.2875 193.125C40.9499 193.333 40.7811 193.62 40.7811 193.986C40.7811 194.233 40.843 194.444 40.9668 194.619C41.0962 194.793 41.3015 194.959 41.5829 195.117C41.8642 195.274 42.4043 195.502 43.2032 195.8C44.3004 196.2 45.0402 196.602 45.4228 197.007C45.811 197.412 46.0051 197.921 46.0051 198.535ZM52.1997 201.227C50.8325 201.227 49.7523 200.81 48.9589 199.978C48.1713 199.145 47.7774 197.989 47.7774 196.509C47.7774 195.018 48.1431 193.834 48.8745 192.956C49.6116 192.078 50.599 191.64 51.8368 191.64C52.9958 191.64 53.9129 192.022 54.5881 192.787C55.2632 193.547 55.6008 194.551 55.6008 195.8V196.686H49.229C49.2571 197.772 49.53 198.596 50.0476 199.159C50.5709 199.722 51.3051 200.003 52.2503 200.003C53.2462 200.003 54.2308 199.795 55.2041 199.379V200.628C54.709 200.841 54.2392 200.993 53.7947 201.083C53.3559 201.179 52.8242 201.227 52.1997 201.227ZM51.8199 192.813C51.0772 192.813 50.4837 193.055 50.0392 193.538C49.6003 194.022 49.3415 194.692 49.2628 195.547H54.0986C54.0986 194.664 53.9016 193.989 53.5078 193.522C53.114 193.049 52.5513 192.813 51.8199 192.813Z" fill="#FF0000"/>
<path d="M23.956 213.606C23.956 212.116 24.1727 210.72 24.6059 209.421C25.0447 208.121 25.6749 206.981 26.4963 206.003H27.8635C27.0533 207.088 26.4429 208.281 26.0321 209.581C25.6271 210.881 25.4245 212.217 25.4245 213.59C25.4245 214.94 25.6327 216.259 26.049 217.548C26.4654 218.836 27.0646 220.012 27.8466 221.075H26.4963C25.6693 220.119 25.0391 219.002 24.6059 217.725C24.1727 216.448 23.956 215.075 23.956 213.606ZM34.4125 218.341H33.0453V209.547C33.0453 208.816 33.0678 208.124 33.1128 207.471C32.9947 207.589 32.8625 207.713 32.7162 207.842C32.5699 207.972 31.9004 208.52 30.7076 209.488L29.9649 208.526L33.231 206.003H34.4125V218.341ZM42.6916 213.606C42.6916 215.086 42.4722 216.465 42.0334 217.742C41.6001 219.019 40.9728 220.13 40.1514 221.075H38.801C39.5831 220.018 40.1823 218.845 40.5986 217.556C41.015 216.262 41.2232 214.94 41.2232 213.59C41.2232 212.217 41.0178 210.881 40.6071 209.581C40.202 208.281 39.5943 207.088 38.7842 206.003H40.1514C40.9784 206.987 41.6086 208.132 42.0418 209.437C42.475 210.737 42.6916 212.127 42.6916 213.606Z" fill="#FF0000"/>
<path d="M116.883 16.555C78.475 13.963 78.475 57.172 119.763 65.813" stroke="#FF0000" stroke-width="3"/>
<path d="M121.684 77.048C83.276 74.456 83.276 117.665 124.564 126.306" stroke="#FF0000" stroke-width="3"/>
<path d="M126.486 137.54C88.078 134.948 88.078 178.157 129.366 186.798" stroke="#FF0000" stroke-width="3"/>
<path d="M126.486 198.033C88.078 195.441 88.078 238.65 129.366 247.291" stroke="#FF0000" stroke-width="3"/>
<path d="M126.486 258.525C88.078 255.933 88.078 299.142 129.366 307.783" stroke="#FF0000" stroke-width="3"/>
<path d="M126.486 327.525C88.078 324.933 88.078 368.142 129.366 376.783" stroke="#FF0000" stroke-width="3"/>
<path d="M325.981 257.854H329.467C331.104 257.854 332.288 258.098 333.02 258.588C333.751 259.077 334.117 259.851 334.117 260.909C334.117 261.64 333.912 262.245 333.501 262.723C333.096 263.196 332.502 263.502 331.72 263.643V263.727C333.594 264.048 334.531 265.033 334.531 266.681C334.531 267.784 334.156 268.645 333.408 269.264C332.665 269.883 331.625 270.192 330.285 270.192H325.981V257.854ZM327.416 263.137H329.779C330.792 263.137 331.52 262.979 331.965 262.664C332.409 262.343 332.632 261.806 332.632 261.052C332.632 260.36 332.384 259.862 331.889 259.558C331.394 259.249 330.606 259.094 329.526 259.094H327.416V263.137ZM327.416 264.352V268.968H329.99C330.986 268.968 331.734 268.777 332.235 268.394C332.741 268.006 332.995 267.401 332.995 266.58C332.995 265.815 332.736 265.252 332.218 264.892C331.706 264.532 330.924 264.352 329.872 264.352H327.416ZM338.295 260.942V266.943C338.295 267.697 338.466 268.259 338.809 268.631C339.153 269.002 339.69 269.188 340.421 269.188C341.389 269.188 342.095 268.923 342.54 268.394C342.99 267.866 343.215 267.002 343.215 265.804V260.942H344.616V270.192H343.459L343.257 268.951H343.181C342.894 269.407 342.495 269.756 341.983 269.998C341.476 270.24 340.897 270.361 340.244 270.361C339.119 270.361 338.275 270.094 337.712 269.559C337.155 269.025 336.877 268.169 336.877 266.993V260.942H338.295ZM351.899 260.79C353.114 260.79 354.057 261.207 354.726 262.04C355.401 262.867 355.739 264.04 355.739 265.559C355.739 267.078 355.398 268.259 354.718 269.103C354.043 269.942 353.103 270.361 351.899 270.361C351.297 270.361 350.746 270.251 350.245 270.032C349.75 269.807 349.333 269.463 348.996 269.002H348.894L348.599 270.192H347.595V257.06H348.996V260.25C348.996 260.965 348.973 261.606 348.928 262.175H348.996C349.648 261.252 350.616 260.79 351.899 260.79ZM351.696 261.964C350.74 261.964 350.051 262.239 349.629 262.791C349.207 263.336 348.996 264.259 348.996 265.559C348.996 266.858 349.212 267.79 349.646 268.352C350.079 268.909 350.774 269.188 351.73 269.188C352.591 269.188 353.232 268.875 353.654 268.251C354.076 267.621 354.287 266.718 354.287 265.542C354.287 264.338 354.076 263.44 353.654 262.85C353.232 262.259 352.58 261.964 351.696 261.964ZM362.499 260.79C363.714 260.79 364.657 261.207 365.326 262.04C366.001 262.867 366.339 264.04 366.339 265.559C366.339 267.078 365.998 268.259 365.318 269.103C364.643 269.942 363.703 270.361 362.499 270.361C361.897 270.361 361.345 270.251 360.845 270.032C360.35 269.807 359.933 269.463 359.596 269.002H359.494L359.199 270.192H358.195V257.06H359.596V260.25C359.596 260.965 359.573 261.606 359.528 262.175H359.596C360.248 261.252 361.216 260.79 362.499 260.79ZM362.296 261.964C361.34 261.964 360.651 262.239 360.229 262.791C359.807 263.336 359.596 264.259 359.596 265.559C359.596 266.858 359.812 267.79 360.246 268.352C360.679 268.909 361.374 269.188 362.33 269.188C363.191 269.188 363.832 268.875 364.254 268.251C364.676 267.621 364.887 266.718 364.887 265.542C364.887 264.338 364.676 263.44 364.254 262.85C363.832 262.259 363.18 261.964 362.296 261.964ZM370.196 270.192H368.795V257.06H370.196V270.192ZM374.567 270.192H373.166V260.942H374.567V270.192ZM373.048 258.436C373.048 258.115 373.127 257.882 373.284 257.735C373.442 257.583 373.639 257.508 373.875 257.508C374.1 257.508 374.294 257.583 374.458 257.735C374.621 257.887 374.702 258.121 374.702 258.436C374.702 258.751 374.621 258.987 374.458 259.145C374.294 259.297 374.1 259.373 373.875 259.373C373.639 259.373 373.442 259.297 373.284 259.145C373.127 258.987 373.048 258.751 373.048 258.436ZM383.868 270.192V264.208C383.868 263.455 383.696 262.892 383.353 262.521C383.01 262.149 382.472 261.964 381.741 261.964C380.773 261.964 380.064 262.225 379.614 262.748C379.164 263.272 378.939 264.135 378.939 265.339V270.192H377.538V260.942H378.677L378.905 262.208H378.973C379.26 261.753 379.662 261.401 380.18 261.153C380.697 260.9 381.274 260.774 381.91 260.774C383.024 260.774 383.862 261.044 384.425 261.584C384.987 262.118 385.269 262.976 385.269 264.158V270.192H383.868ZM395.725 260.942V261.829L394.012 262.031C394.169 262.228 394.31 262.487 394.434 262.807C394.558 263.123 394.619 263.48 394.619 263.879C394.619 264.785 394.31 265.508 393.691 266.048C393.072 266.588 392.223 266.858 391.142 266.858C390.867 266.858 390.608 266.836 390.366 266.791C389.77 267.106 389.471 267.503 389.471 267.981C389.471 268.234 389.575 268.423 389.784 268.546C389.992 268.664 390.349 268.724 390.855 268.724H392.493C393.494 268.724 394.262 268.935 394.797 269.357C395.337 269.778 395.607 270.392 395.607 271.196C395.607 272.22 395.196 273 394.375 273.534C393.553 274.074 392.355 274.344 390.779 274.344C389.57 274.344 388.636 274.119 387.978 273.669C387.325 273.219 386.999 272.583 386.999 271.762C386.999 271.199 387.179 270.712 387.539 270.302C387.899 269.891 388.405 269.613 389.058 269.466C388.822 269.359 388.622 269.193 388.459 268.968C388.301 268.743 388.222 268.482 388.222 268.183C388.222 267.846 388.312 267.55 388.492 267.297C388.672 267.044 388.957 266.799 389.345 266.563C388.867 266.366 388.476 266.031 388.172 265.559C387.874 265.086 387.724 264.546 387.724 263.938C387.724 262.926 388.028 262.146 388.636 261.601C389.244 261.049 390.104 260.774 391.218 260.774C391.702 260.774 392.138 260.83 392.526 260.942H395.725ZM388.349 271.745C388.349 272.246 388.56 272.625 388.982 272.884C389.404 273.143 390.009 273.272 390.796 273.272C391.972 273.272 392.842 273.095 393.404 272.741C393.972 272.392 394.257 271.916 394.257 271.314C394.257 270.814 394.102 270.465 393.792 270.268C393.483 270.077 392.901 269.981 392.045 269.981H390.366C389.73 269.981 389.235 270.133 388.881 270.437C388.526 270.741 388.349 271.177 388.349 271.745ZM389.108 263.905C389.108 264.552 389.291 265.041 389.657 265.373C390.023 265.705 390.532 265.871 391.185 265.871C392.552 265.871 393.235 265.207 393.235 263.879C393.235 262.49 392.543 261.795 391.159 261.795C390.501 261.795 389.995 261.972 389.64 262.326C389.286 262.681 389.108 263.207 389.108 263.905Z" fill="#008000"/>
<path d="M343.887 278.733C343.887 279.982 343.459 280.944 342.604 281.619C341.754 282.289 340.536 282.623 338.95 282.623H337.498V287.476H336.063V275.138H339.262C342.345 275.138 343.887 276.336 343.887 278.733ZM337.498 281.391H338.789C340.061 281.391 340.981 281.186 341.549 280.775C342.117 280.364 342.401 279.706 342.401 278.8C342.401 277.984 342.134 277.377 341.6 276.977C341.065 276.578 340.232 276.378 339.102 276.378H337.498V281.391ZM352.596 287.476V281.492C352.596 280.739 352.425 280.176 352.081 279.805C351.738 279.433 351.201 279.248 350.469 279.248C349.496 279.248 348.784 279.512 348.334 280.041C347.89 280.57 347.668 281.436 347.668 282.64V287.476H346.267V274.344H347.668V278.319C347.668 278.797 347.645 279.194 347.6 279.509H347.684C347.96 279.065 348.351 278.716 348.858 278.463C349.37 278.204 349.952 278.074 350.605 278.074C351.735 278.074 352.582 278.345 353.145 278.885C353.713 279.419 353.997 280.272 353.997 281.442V287.476H352.596ZM362.572 287.476L362.293 286.159H362.226C361.764 286.739 361.303 287.133 360.842 287.341C360.386 287.544 359.815 287.645 359.128 287.645C358.211 287.645 357.491 287.408 356.968 286.936C356.45 286.463 356.191 285.791 356.191 284.919C356.191 283.051 357.685 282.072 360.673 281.982L362.243 281.931V281.357C362.243 280.632 362.085 280.097 361.77 279.754C361.46 279.405 360.963 279.231 360.276 279.231C359.505 279.231 358.633 279.467 357.66 279.94L357.229 278.868C357.685 278.62 358.183 278.426 358.723 278.285C359.269 278.145 359.815 278.074 360.361 278.074C361.463 278.074 362.279 278.319 362.808 278.809C363.342 279.298 363.61 280.083 363.61 281.163V287.476H362.572ZM359.407 286.489C360.279 286.489 360.963 286.249 361.458 285.771C361.958 285.293 362.209 284.623 362.209 283.763V282.927L360.808 282.986C359.694 283.026 358.889 283.2 358.394 283.509C357.905 283.813 357.66 284.289 357.66 284.936C357.66 285.442 357.812 285.828 358.116 286.092C358.425 286.356 358.855 286.489 359.407 286.489ZM372.471 284.953C372.471 285.813 372.15 286.477 371.509 286.944C370.868 287.411 369.967 287.645 368.808 287.645C367.582 287.645 366.625 287.451 365.939 287.062V285.763C366.383 285.988 366.859 286.165 367.365 286.294C367.877 286.424 368.37 286.489 368.842 286.489C369.574 286.489 370.136 286.373 370.53 286.143C370.924 285.906 371.121 285.549 371.121 285.071C371.121 284.711 370.963 284.404 370.648 284.151C370.339 283.892 369.731 283.588 368.825 283.239C367.964 282.919 367.351 282.64 366.985 282.404C366.625 282.162 366.355 281.889 366.175 281.585C366.001 281.281 365.914 280.919 365.914 280.497C365.914 279.743 366.22 279.149 366.834 278.716C367.447 278.277 368.288 278.058 369.357 278.058C370.353 278.058 371.326 278.26 372.277 278.665L371.779 279.805C370.851 279.422 370.01 279.231 369.256 279.231C368.592 279.231 368.091 279.335 367.753 279.543C367.416 279.751 367.247 280.038 367.247 280.404C367.247 280.651 367.309 280.862 367.433 281.037C367.562 281.211 367.768 281.377 368.049 281.535C368.33 281.692 368.87 281.92 369.669 282.218C370.766 282.618 371.506 283.02 371.889 283.425C372.277 283.83 372.471 284.339 372.471 284.953ZM378.666 287.645C377.299 287.645 376.218 287.228 375.425 286.396C374.637 285.563 374.243 284.407 374.243 282.927C374.243 281.436 374.609 280.252 375.341 279.374C376.078 278.496 377.065 278.058 378.303 278.058C379.462 278.058 380.379 278.44 381.054 279.205C381.729 279.965 382.067 280.969 382.067 282.218V283.104H375.695C375.723 284.19 375.996 285.015 376.514 285.577C377.037 286.14 377.771 286.421 378.716 286.421C379.712 286.421 380.697 286.213 381.67 285.797V287.046C381.175 287.259 380.705 287.411 380.261 287.501C379.822 287.597 379.29 287.645 378.666 287.645ZM378.286 279.231C377.543 279.231 376.95 279.473 376.505 279.956C376.066 280.44 375.808 281.11 375.729 281.965H380.565C380.565 281.082 380.368 280.407 379.974 279.94C379.58 279.467 379.017 279.231 378.286 279.231Z" fill="#008000"/>
<path d="M350.422 300.025C350.422 298.535 350.639 297.139 351.072 295.84C351.511 294.54 352.141 293.401 352.962 292.422H354.329C353.519 293.507 352.909 294.7 352.498 296C352.093 297.3 351.89 298.636 351.89 300.009C351.89 301.359 352.099 302.678 352.515 303.967C352.931 305.255 353.531 306.431 354.313 307.494H352.962C352.135 306.538 351.505 305.421 351.072 304.144C350.639 302.867 350.422 301.494 350.422 300.025ZM363.334 295.325C363.334 296.112 363.112 296.757 362.668 297.257C362.229 297.758 361.604 298.093 360.794 298.262V298.329C361.784 298.453 362.519 298.768 362.997 299.274C363.475 299.781 363.714 300.445 363.714 301.266C363.714 302.442 363.306 303.348 362.49 303.984C361.675 304.614 360.516 304.929 359.013 304.929C358.361 304.929 357.762 304.878 357.216 304.777C356.676 304.681 356.15 304.51 355.638 304.262V302.929C356.172 303.193 356.74 303.396 357.342 303.536C357.95 303.671 358.524 303.739 359.064 303.739C361.196 303.739 362.263 302.903 362.263 301.232C362.263 299.736 361.087 298.987 358.735 298.987H357.52V297.781H358.752C359.714 297.781 360.476 297.57 361.039 297.148C361.601 296.72 361.883 296.129 361.883 295.375C361.883 294.773 361.675 294.301 361.258 293.958C360.848 293.614 360.288 293.443 359.579 293.443C359.039 293.443 358.53 293.516 358.051 293.662C357.573 293.808 357.027 294.078 356.414 294.472L355.705 293.527C356.211 293.128 356.794 292.815 357.452 292.59C358.116 292.36 358.814 292.244 359.545 292.244C360.743 292.244 361.675 292.52 362.339 293.071C363.002 293.617 363.334 294.368 363.334 295.325ZM369.158 300.025C369.158 301.505 368.938 302.884 368.499 304.161C368.066 305.438 367.439 306.549 366.617 307.494H365.267C366.049 306.437 366.648 305.264 367.065 303.975C367.481 302.681 367.689 301.359 367.689 300.009C367.689 298.636 367.484 297.3 367.073 296C366.668 294.7 366.06 293.507 365.25 292.422H366.617C367.444 293.406 368.075 294.551 368.508 295.856C368.941 297.156 369.158 298.546 369.158 300.025Z" fill="#008000"/>
<path d="M251.31 316.426C289.718 313.833 289.718 279.266 251.31 270.624" stroke="#008000" stroke-width="3"/>
<path d="M250.31 378.426C288.718 375.833 288.718 341.266 250.31 332.624" stroke="#008000" stroke-width="3"/>
<path d="M251.31 255.933C289.718 253.342 289.718 218.773 251.31 210.132" stroke="#008000" stroke-width="3"/>
<path d="M251.31 195.44C289.718 192.849 289.718 158.28 251.31 149.639" stroke="#008000" stroke-width="3"/>
<path d="M251.31 134.948C299.32 132.355 299.32 97.788 260.912 89.147" stroke="#008000" stroke-width="3"/>
<path d="M260.912 74.455C308.922 71.864 308.922 37.295 270.514 28.654" stroke="#008000" stroke-width="3"/>
</svg>
